<?xml version="1.0" encoding="utf-8"?>
<!-- Generator: Adobe Illustrator 17.0.0, SVG Export Plug-In . SVG Version: 6.00 Build 0)  -->
<!DOCTYPE svg PUBLIC "-//W3C//DTD SVG 1.1//EN" "http://www.w3.org/Graphics/SVG/1.1/DTD/svg11.dtd">
<svg version="1.1" id="Vrstva_1" xmlns="http://www.w3.org/2000/svg" xmlns:xlink="http://www.w3.org/1999/xlink" x="0px" y="0px"
	 width="45.35px" height="45.35px" viewBox="0 0 45.35 45.35" enable-background="new 0 0 45.35 45.35" xml:space="preserve" fill="#e20074">
<g>
	<path fill="#e20074" d="M32.122,42.518h-20.54l3.969-16.758h12.603L32.122,42.518z M13.836,40.735h16.031l-3.124-13.193H16.96
		L13.836,40.735z"/>
	<path fill="#e20074" d="M28.339,27.542H15.364v-5.219H28.34L28.339,27.542L28.339,27.542z M17.147,25.759h9.41v-1.654h-9.41V25.759
		z"/>
	<path fill="#e20074" d="M28.14,24.106H15.553l-2.253-9.353l-4.892-3.295l3.05-2.992h20.685L28.14,24.106z M16.957,22.323h9.799
		l3.09-12.074H12.187l-0.971,0.952l3.654,2.46L16.957,22.323z"/>
	<polygon fill="#e20074" points="30.671,10.188 23.733,7.484 19.247,7.484 19.247,5.701 24.069,5.701 31.318,8.528 	"/>
	<path fill="#e20074" d="M24.793,7.484h-6.216V2.832h6.216V7.484z M20.36,5.701h2.65V4.615h-2.65V5.701z"/>
	<path fill="#e20074" d="M32.441,24.106h-6.142l4.002-15.64h6.641L32.441,24.106z M28.597,22.323H31.1l3.476-12.074h-2.89
		L28.597,22.323z"/>
	
		<rect x="14.754" y="3.909" transform="matrix(-0.3403 -0.9403 0.9403 -0.3403 13.4715 25.4002)" fill="#e20074" width="1.783" height="8.131"/>
</g>
</svg>
