<?xml version="1.0" encoding="utf-8"?>
<!-- Generator: Adobe Illustrator 17.0.0, SVG Export Plug-In . SVG Version: 6.00 Build 0)  -->
<!DOCTYPE svg PUBLIC "-//W3C//DTD SVG 1.1//EN" "http://www.w3.org/Graphics/SVG/1.1/DTD/svg11.dtd">
<svg version="1.1" id="Vrstva_1" xmlns="http://www.w3.org/2000/svg" xmlns:xlink="http://www.w3.org/1999/xlink" x="0px" y="0px"
	 width="45.35px" height="45.35px" viewBox="0 0 45.35 45.35" enable-background="new 0 0 45.35 45.35" xml:space="preserve" fill="#e20074">
<g>
	<polygon points="13.541,29.96 8.334,24.753 13.541,19.546 14.801,20.807 10.855,24.753 14.801,28.7 	"/>
	<polygon points="31.634,29.961 30.373,28.701 34.318,24.753 30.373,20.808 31.634,19.547 36.839,24.753 	"/>
	<path fill="#e20074" d="M42.518,40.102H2.832V11.323h39.685V40.102z M4.615,38.319h36.119V13.106H4.615V38.319z"/>
	<path fill="#e20074" d="M42.518,13.106H2.832V5.248h39.685V13.106z M4.615,11.323h36.119V7.031H4.615V11.323z"/>
	<rect x="21.308" y="16.725" transform="matrix(-0.9552 -0.2959 0.2959 -0.9552 35.8009 56.8172)" width="1.783" height="17.949"/>
</g>
</svg>
