<?xml version="1.0" encoding="utf-8"?>
<!-- Generator: Adobe Illustrator 17.0.0, SVG Export Plug-In . SVG Version: 6.00 Build 0)  -->
<!DOCTYPE svg PUBLIC "-//W3C//DTD SVG 1.1//EN" "http://www.w3.org/Graphics/SVG/1.1/DTD/svg11.dtd">
<svg version="1.1" id="Vrstva_1" xmlns="http://www.w3.org/2000/svg" xmlns:xlink="http://www.w3.org/1999/xlink" x="0px" y="0px"
	 width="45.35px" height="45.35px" viewBox="0 0 45.35 45.35" enable-background="new 0 0 45.35 45.35" xml:space="preserve" fill="#e20074">
<g>
	<path fill="#e20074" d="M22.675,38.259c-8.179,0-14.833-6.654-14.833-14.833S14.496,8.593,22.675,8.593s14.833,6.654,14.833,14.833
		S30.854,38.259,22.675,38.259z M22.675,10.592c-7.077,0-12.833,5.757-12.833,12.833s5.757,12.833,12.833,12.833
		s12.833-5.757,12.833-12.833S29.751,10.592,22.675,10.592z"/>
	<rect x="21.675" y="2.247" fill="#e20074" width="2" height="34.916"/>
	<rect x="11.413" y="14.397" fill="#e20074" width="22.523" height="2"/>
	<rect x="11.413" y="30.568" fill="#e20074" width="22.523" height="2"/>
	<rect x="8.842" y="22.426" fill="#e20074" width="27.667" height="2"/>
	<path fill="#e20074" d="M16.863,36.84c-3.606-3.605-5.592-8.396-5.592-13.488c0-5.093,1.986-9.883,5.592-13.489l1.414,1.414
		c-3.228,3.228-5.006,7.517-5.006,12.075s1.778,8.847,5.006,12.074L16.863,36.84z"/>
	<path fill="#e20074" d="M28.864,36.878l-1.414-1.414c3.229-3.229,5.006-7.517,5.006-12.075s-1.777-8.846-5.006-12.074l1.414-1.414
		c3.606,3.605,5.592,8.396,5.592,13.488C34.456,28.482,32.471,33.272,28.864,36.878z"/>
	<path fill="#e20074" d="M20.625,37.87c-6.48-6.48-6.484-22.409-0.007-28.887l1.414,1.414c-5.721,5.722-5.717,20.334,0.007,26.059
		L20.625,37.87z"/>
	<path fill="#e20074" d="M24.813,37.87l-1.414-1.414c5.722-5.722,5.718-20.333-0.007-26.058l1.414-1.414
		C31.286,15.465,31.29,31.393,24.813,37.87z"/>
	<rect x="1.415" y="22.363" fill="#e20074" width="4.993" height="2"/>
	<rect x="38.942" y="22.363" fill="#e20074" width="4.993" height="2"/>
	
		<rect x="6.911" y="9.096" transform="matrix(-0.7072 -0.7071 0.7071 -0.7072 8.9216 23.8879)" fill="#e20074" width="4.994" height="2"/>
	
		<rect x="33.446" y="35.63" transform="matrix(-0.7071 -0.7071 0.7071 -0.7071 35.4571 87.9463)" fill="#e20074" width="4.994" height="2"/>
	
		<rect x="34.942" y="7.598" transform="matrix(-0.7071 -0.7071 0.7071 -0.7071 54.2193 42.6484)" fill="#e20074" width="2" height="4.994"/>
	
		<rect x="8.408" y="34.133" transform="matrix(-0.7071 -0.7071 0.7071 -0.7071 -9.8405 69.184)" fill="#e20074" width="2" height="4.994"/>
</g>
</svg>
