<?xml version="1.0" encoding="utf-8"?>
<!-- Generator: Adobe Illustrator 17.0.0, SVG Export Plug-In . SVG Version: 6.00 Build 0)  -->
<!DOCTYPE svg PUBLIC "-//W3C//DTD SVG 1.1//EN" "http://www.w3.org/Graphics/SVG/1.1/DTD/svg11.dtd">
<svg version="1.1" id="Vrstva_1" xmlns="http://www.w3.org/2000/svg" xmlns:xlink="http://www.w3.org/1999/xlink" x="0px" y="0px"
	 width="45.35px" height="45.35px" viewBox="0 0 45.35 45.35" enable-background="new 0 0 45.35 45.35" xml:space="preserve" fill="#e20074">
<g>
	<path fill="#e20074" d="M38.811,42.518H6.539V19.549L22.675,2.832l16.136,16.717C38.811,19.549,38.811,42.518,38.811,42.518z
		 M8.294,40.761h28.76V20.259L22.675,5.362L8.294,20.259V40.761z"/>
	<path fill="#e20074" d="M33.575,16.652l-5.862-6.072V3.219h5.862V16.652z M29.47,9.872l2.35,2.433V4.975h-2.35V9.872z"/>
	<path fill="#e20074" d="M21.139,42.518H10.601V26.711h10.537V42.518z M12.358,40.761h7.025V28.467h-7.025V40.761z"/>
	<path fill="#e20074" d="M34.481,35.916H22.702v-9.205h11.779V35.916z M24.459,34.16h8.266v-5.692h-8.266
		C24.459,28.467,24.459,34.16,24.459,34.16z"/>
	<path fill="#e20074" d="M24.761,15.357h-4.172v-4.171h4.171L24.761,15.357L24.761,15.357z M22.346,13.6h0.659v-0.659h-0.659V13.6z"
		/>
</g>
</svg>
