<?xml version="1.0" encoding="utf-8"?>
<!-- Generator: Adobe Illustrator 17.0.0, SVG Export Plug-In . SVG Version: 6.00 Build 0)  -->
<!DOCTYPE svg PUBLIC "-//W3C//DTD SVG 1.1//EN" "http://www.w3.org/Graphics/SVG/1.1/DTD/svg11.dtd">
<svg version="1.1" id="Vrstva_1" xmlns="http://www.w3.org/2000/svg" xmlns:xlink="http://www.w3.org/1999/xlink" x="0px" y="0px"
	 width="45.35px" height="45.35px" viewBox="0 0 45.35 45.35" enable-background="new 0 0 45.35 45.35" xml:space="preserve" fill="#e20074">
<g>
	<path fill="#e20074" d="M22.675,42.518c-10.941,0-19.842-8.902-19.842-19.843S11.734,2.832,22.675,2.832
		s19.843,8.902,19.843,19.842S33.615,42.518,22.675,42.518z M22.675,4.616c-9.958,0-18.059,8.101-18.059,18.059
		s8.101,18.06,18.059,18.06s18.06-8.102,18.06-18.06S32.633,4.616,22.675,4.616z"/>
	<rect x="21.783" y="6.83" fill="#e20074" width="1.783" height="1.855"/>
	<path fill="#e20074" d="M22.674,23.644c-0.139,0-0.28-0.033-0.413-0.102c-0.436-0.228-0.604-0.768-0.376-1.204l5.436-10.386
		c0.229-0.436,0.766-0.605,1.204-0.376c0.436,0.228,0.605,0.767,0.376,1.204l-5.436,10.386
		C23.306,23.47,22.996,23.644,22.674,23.644z"/>
	<rect x="21.783" y="36.827" fill="#e20074" width="1.783" height="1.846"/>
	<rect x="36.741" y="21.861" fill="#e20074" width="1.855" height="1.783"/>
	<rect x="6.753" y="21.861" fill="#e20074" width="1.846" height="1.783"/>
	<rect x="15.882" y="21.861" fill="#e20074" width="6.794" height="1.783"/>
	
		<rect x="32.386" y="11.221" transform="matrix(-0.7071 -0.7071 0.7071 -0.7071 48.2174 44.2699)" fill="#e20074" width="1.783" height="1.855"/>
	
		<rect x="11.177" y="32.435" transform="matrix(-0.7071 -0.7071 0.7071 -0.7071 -2.9851 65.4804)" fill="#e20074" width="1.783" height="1.846"/>
	
		<rect x="32.349" y="32.462" transform="matrix(-0.7071 -0.7071 0.7071 -0.7071 33.2223 80.4691)" fill="#e20074" width="1.855" height="1.783"/>
	
		<rect x="11.146" y="11.255" transform="matrix(-0.707 -0.7072 0.7072 -0.707 12.0126 29.2706)" fill="#e20074" width="1.846" height="1.783"/>
</g>
</svg>
