<?xml version="1.0" encoding="utf-8"?>
<!-- Generator: Adobe Illustrator 17.0.0, SVG Export Plug-In . SVG Version: 6.00 Build 0)  -->
<!DOCTYPE svg PUBLIC "-//W3C//DTD SVG 1.1//EN" "http://www.w3.org/Graphics/SVG/1.1/DTD/svg11.dtd">
<svg version="1.1" id="Vrstva_1" xmlns="http://www.w3.org/2000/svg" xmlns:xlink="http://www.w3.org/1999/xlink" x="0px" y="0px"
	 width="45.35px" height="45.35px" viewBox="0 0 45.35 45.35" enable-background="new 0 0 45.35 45.35" xml:space="preserve" fill="#e20074">
<g>
	<rect x="12.754" y="17.94" fill="#e20074" width="2.005" height="2.005"/>
	<rect x="18.791" y="17.94" fill="#e20074" width="2.005" height="2.005"/>
	<rect x="24.681" y="17.94" fill="#e20074" width="2.005" height="2.005"/>
	<rect x="30.331" y="17.94" fill="#e20074" width="2.005" height="2.005"/>
	<path fill="#e20074" d="M34.099,33.267v-2.005c0.173,0,0.624-0.007,0.793-0.024c2.396-0.243,4.202-2.246,4.202-4.657V11.305
		c0-2.582-2.1-4.682-4.683-4.682H10.937c-2.581,0-4.682,2.1-4.682,4.682V26.58c0,2.581,2.1,4.682,4.682,4.682H29.13v2.005H10.937
		c-3.688,0-6.687-3-6.687-6.687V11.305c0-3.688,3-6.687,6.687-6.687h23.475c3.688,0,6.688,3,6.688,6.687V26.58
		c0,3.445-2.581,6.305-6.005,6.652C34.884,33.254,34.318,33.267,34.099,33.267z"/>
	<polygon fill="#e20074" points="36.087,40.732 27.73,32.684 29.121,31.239 34.081,36.016 34.081,32.221 36.087,32.221 	"/>
</g>
</svg>
