<?xml version="1.0" encoding="utf-8"?>
<!-- Generator: Adobe Illustrator 17.0.0, SVG Export Plug-In . SVG Version: 6.00 Build 0)  -->
<!DOCTYPE svg PUBLIC "-//W3C//DTD SVG 1.1//EN" "http://www.w3.org/Graphics/SVG/1.1/DTD/svg11.dtd">
<svg version="1.1" id="Vrstva_1" xmlns="http://www.w3.org/2000/svg" xmlns:xlink="http://www.w3.org/1999/xlink" x="0px" y="0px"
	 width="45.35px" height="45.35px" viewBox="0 0 45.35 45.35" enable-background="new 0 0 45.35 45.35" xml:space="preserve" fill="#e20074">
<g>
	<path d="M29.203,26.816l-2.41-7.751l-7.751-2.409l6.628-4.686l-0.105-8.118l6.506,4.855L39.759,6.1l-2.607,7.687l4.853,6.506
		l-8.116-0.104L29.203,26.816z M23.322,15.977l5.004,1.556l1.556,5.005l3.026-4.279l5.24,0.067l-3.135-4.199l1.684-4.962
		l-4.963,1.683l-4.199-3.134l0.067,5.24L23.322,15.977z"/>
	<path d="M7.064,42.518c-0.994,0-1.929-0.387-2.632-1.091c-1.451-1.452-1.451-3.813,0-5.264l19.494-19.494l1.356,1.356L5.788,37.519
		c-0.703,0.704-0.703,1.848,0,2.552c0.682,0.682,1.871,0.682,2.552,0l19.495-19.494l1.356,1.356L9.696,41.427
		C8.993,42.13,8.058,42.518,7.064,42.518z"/>
	
		<rect x="33.435" y="25.439" transform="matrix(-0.7071 -0.7071 0.7071 -0.7071 40.2516 69.4675)" fill="#e20074" width="2.155" height="1.917"/>
	
		<rect x="16.394" y="3.314" transform="matrix(-0.707 -0.7072 0.7072 -0.707 26.8032 19.6499)" fill="#e20074" width="2.156" height="1.917"/>
	
		<rect x="15.515" y="10.769" transform="matrix(-0.7072 -0.707 0.707 -0.7072 20.0362 31.7537)" fill="#e20074" width="2.156" height="1.917"/>
</g>
</svg>
