<?xml version="1.0" encoding="utf-8"?>
<!-- Generator: Adobe Illustrator 17.0.0, SVG Export Plug-In . SVG Version: 6.00 Build 0)  -->
<!DOCTYPE svg PUBLIC "-//W3C//DTD SVG 1.1//EN" "http://www.w3.org/Graphics/SVG/1.1/DTD/svg11.dtd">
<svg version="1.1" id="Vrstva_1" xmlns="http://www.w3.org/2000/svg" xmlns:xlink="http://www.w3.org/1999/xlink" x="0px" y="0px"
	 width="200px" height="36.788px" viewBox="0 0 200 36.788" enable-background="new 0 0 200 36.788" xml:space="preserve">
<g>
	<g>
		<path fill="#E20074" d="M1,19.314v-5.771h2.799h2.972v5.771H1z"/>
		<path fill="#E20074" d="M18.6,19.314v-5.771h3.147h2.624v5.771H18.6z"/>
		<path fill="#E20074" d="M35.913,19.314v-5.771h2.902h2.869v5.771H35.913z"/>
		<path fill="#E20074" d="M53.227,19.314v-5.771h2.656h3.115v5.771H53.227z"/>
		<path fill="#E20074" d="M24.085,0.433h-22.8L1,10.489l1.513,0.261c0.281-2.963,1.059-5.162,2.333-6.597
			c1.341-1.501,3.187-2.285,5.56-2.353v21.037c0,1.838-0.257,3.031-0.793,3.582c-0.455,0.47-1.226,0.758-2.313,0.864
			c-0.322,0.027-0.871,0.04-1.649,0.04v1.609h14.07v-1.609c-0.778,0-1.327-0.013-1.65-0.04c-1.086-0.106-1.857-0.395-2.313-0.864
			c-0.536-0.551-0.796-1.743-0.796-3.582V1.801c2.374,0.067,4.223,0.852,5.563,2.353c1.274,1.434,2.052,3.634,2.334,6.597
			l1.512-0.261L24.085,0.433z"/>
	</g>
	<g>
		<path fill="#E20074" d="M78.558,10.53c-0.496-2.454-1.14-4.264-1.931-5.431c-1.261-1.863-2.87-2.796-4.827-2.796
			c-1.194,0-2.199,0.363-3.017,1.087c-0.993,0.886-1.488,2.052-1.488,3.499c0,1.529,0.536,2.736,1.609,3.621
			c0.657,0.55,1.924,1.147,3.801,1.79c2.736,0.953,4.579,1.777,5.531,2.474c1.998,1.475,2.997,3.534,2.997,6.175
			c0,2.508-0.818,4.605-2.454,6.296c-1.515,1.567-3.372,2.353-5.571,2.353c-1.18,0-2.273-0.215-3.278-0.643
			c-0.43-0.174-1.134-0.57-2.112-1.188c-0.322-0.2-0.623-0.301-0.905-0.301c-0.389,0-0.731,0.187-1.025,0.563
			c-0.134,0.189-0.315,0.49-0.543,0.905h-1.267v-9.935h1.307c0.483,2.521,1.146,4.438,1.991,5.751
			c1.421,2.239,3.292,3.359,5.612,3.359c1.354,0,2.481-0.395,3.379-1.188c1.14-1.017,1.71-2.413,1.71-4.182
			c0-2.119-0.885-3.688-2.655-4.707c-0.577-0.336-2.126-0.926-4.646-1.769c-1.784-0.605-3.192-1.362-4.224-2.274
			c-1.502-1.314-2.252-3.124-2.252-5.43c0-2.494,0.817-4.465,2.453-5.914c1.327-1.193,2.943-1.79,4.848-1.79
			c1.032,0,2.051,0.201,3.057,0.604c0.416,0.174,1.066,0.529,1.951,1.065c0.281,0.162,0.529,0.242,0.744,0.242
			c0.429,0,0.851-0.43,1.267-1.288h1.126v9.051H78.558z"/>
		<path fill="#E20074" d="M82.34,9.987h8.588v1.288h-0.744c-1.113,0-1.669,0.296-1.669,0.885c0,0.254,0.093,0.63,0.281,1.126
			l4.124,10.761l3.58-9.977c0.255-0.697,0.382-1.233,0.382-1.609c0-0.79-0.604-1.186-1.81-1.186h-0.905V9.987h6.757v1.288h-0.442
			c-0.496,0-0.898,0.187-1.207,0.563c-0.228,0.268-0.456,0.717-0.684,1.348l-6.819,18.322c-0.643,1.704-1.355,2.931-2.132,3.681
			c-0.805,0.778-1.797,1.167-2.977,1.167c-0.993,0-1.837-0.288-2.534-0.864c-0.831-0.711-1.247-1.595-1.247-2.656
			c0-0.657,0.188-1.206,0.563-1.65c0.402-0.496,0.951-0.744,1.649-0.744c0.764,0,1.348,0.282,1.75,0.845
			c0.242,0.335,0.362,0.724,0.362,1.167c0,0.604-0.221,1.113-0.664,1.528c-0.268,0.254-0.624,0.415-1.066,0.483
			c0.308,0.35,0.731,0.524,1.267,0.524c0.791,0,1.482-0.316,2.072-0.944c0.55-0.591,1.147-1.805,1.79-3.642l0.443-1.287
			l-5.652-15.186c-0.429-1.166-0.805-1.89-1.126-2.171c-0.362-0.322-0.892-0.483-1.589-0.483H82.34V9.987z"/>
		<path fill="#E20074" d="M113.275,9.987v5.994h-1.247c-0.67-3.473-2.273-5.209-4.807-5.209c-0.912,0-1.649,0.275-2.213,0.825
			c-0.59,0.563-0.885,1.253-0.885,2.071c0,0.939,0.408,1.683,1.226,2.233c0.403,0.268,1.133,0.57,2.193,0.904
			c2.292,0.74,3.822,1.395,4.586,1.971c1.501,1.141,2.253,2.635,2.253,4.485c0,1.878-0.651,3.413-1.951,4.607
			c-1.101,0.993-2.508,1.489-4.225,1.489c-0.991,0-1.903-0.176-2.734-0.524c-0.336-0.133-0.96-0.47-1.871-1.006
			c-0.201-0.12-0.375-0.18-0.523-0.18c-0.254,0-0.503,0.428-0.744,1.287h-1.166v-6.978h1.166c0.47,1.702,0.978,2.949,1.528,3.739
			c0.483,0.713,1.093,1.268,1.831,1.67c0.791,0.443,1.616,0.664,2.473,0.664c1.046,0,1.871-0.348,2.474-1.046
			c0.577-0.671,0.866-1.442,0.866-2.314c0-1.259-0.564-2.231-1.691-2.916c-0.603-0.376-1.817-0.866-3.64-1.468
			c-1.206-0.389-2.206-0.892-2.996-1.509c-1.207-0.938-1.811-2.272-1.811-4.002c0-1.595,0.563-2.882,1.689-3.862
			c1.019-0.885,2.306-1.327,3.862-1.327c1.354,0,2.655,0.369,3.902,1.106c0.254,0.148,0.455,0.221,0.604,0.221
			c0.267,0,0.468-0.308,0.602-0.925H113.275z"/>
		<path fill="#E20074" d="M121.381,11.394v11.405c0,1.463,0.1,2.542,0.301,3.237c0.309,1.061,0.959,1.59,1.952,1.59
			c0.911,0,1.562-0.462,1.951-1.388c0.375-0.885,0.564-1.964,0.564-3.238v-0.563h1.366v0.763c0,1.904-0.396,3.413-1.186,4.526
			c-0.778,1.085-2.005,1.629-3.681,1.629c-1.609,0-2.804-0.464-3.58-1.388c-0.577-0.698-0.926-1.536-1.046-2.514
			c-0.08-0.739-0.121-1.623-0.121-2.656V11.394h-2.977v-1.165c1.903-0.469,3.197-1.221,3.882-2.254
			c0.697-1.059,1.159-2.768,1.388-5.128h1.187v7.14h5.53v1.407H121.381z"/>
		<path fill="#E20074" d="M143.867,19.32h-11.264c0.013,2.654,0.289,4.62,0.826,5.893c0.75,1.795,2.037,2.695,3.862,2.695
			c1.42,0,2.607-0.565,3.559-1.691c0.523-0.617,1.046-1.468,1.569-2.553l1.227,0.643c-1.73,3.471-4.063,5.209-7,5.209
			c-2.159,0-3.929-0.737-5.311-2.213c-1.716-1.837-2.574-4.492-2.574-7.966c0-3.19,0.858-5.745,2.574-7.662
			c1.354-1.515,2.983-2.272,4.888-2.272c2.83,0,4.954,1.421,6.377,4.263C143.364,15.183,143.787,17.066,143.867,19.32z
			 M140.066,17.872c0-1.676-0.18-3.058-0.542-4.143c-0.656-1.917-1.69-2.877-3.098-2.877c-1.582,0-2.703,1.18-3.359,3.54
			c-0.268,0.953-0.41,2.113-0.423,3.48H140.066z"/>
		<path fill="#E20074" d="M167.661,28.933V17.349c0-2.387-0.166-3.929-0.503-4.627c-0.454-0.911-1.165-1.367-2.131-1.367
			c-1.152,0-2.083,0.651-2.795,1.951c-0.389,0.698-0.643,1.476-0.765,2.333c-0.094,0.603-0.14,1.777-0.14,3.52v5.168
			c0,1.502,0.168,2.448,0.503,2.837c0.28,0.335,0.805,0.501,1.568,0.501h0.604v1.268h-6.156V17.992c0-1.864-0.039-3.084-0.12-3.662
			c-0.282-1.983-1.146-2.976-2.595-2.976c-1.166,0-2.085,0.664-2.756,1.991c-0.335,0.643-0.563,1.314-0.683,2.012
			c-0.135,0.738-0.202,2.004-0.202,3.802v5.168c0,1.528,0.154,2.474,0.463,2.837c0.295,0.335,0.837,0.501,1.629,0.501h0.583v1.268
			h-8.91v-1.268h0.663c0.751,0,1.273-0.166,1.568-0.501c0.349-0.389,0.524-1.335,0.524-2.837v-9.774
			c0-1.476-0.175-2.407-0.524-2.796c-0.296-0.322-0.817-0.483-1.568-0.483h-0.463V9.987l5.774-0.282v3.359
			c0.268-0.685,0.643-1.287,1.126-1.811c1.032-1.113,2.266-1.669,3.7-1.669c2.213,0,3.814,1.247,4.808,3.742
			c1.207-2.495,2.903-3.742,5.088-3.742c1.85,0,3.238,0.725,4.164,2.172c0.483,0.751,0.776,1.608,0.885,2.574
			c0.094,0.765,0.14,1.617,0.14,2.555v7.441c0,1.502,0.169,2.448,0.504,2.837c0.28,0.335,0.81,0.501,1.589,0.501h0.462v1.268
			H167.661z"/>
		<path fill="#E20074" d="M187.736,9.987v5.994h-1.247c-0.671-3.473-2.272-5.209-4.808-5.209c-0.911,0-1.649,0.275-2.212,0.825
			c-0.591,0.563-0.885,1.253-0.885,2.071c0,0.939,0.408,1.683,1.225,2.233c0.402,0.268,1.134,0.57,2.193,0.904
			c2.294,0.74,3.823,1.395,4.587,1.971c1.502,1.141,2.252,2.635,2.252,4.485c0,1.878-0.649,3.413-1.951,4.607
			c-1.099,0.993-2.508,1.489-4.224,1.489c-0.991,0-1.904-0.176-2.735-0.524c-0.335-0.133-0.958-0.47-1.87-1.006
			c-0.2-0.12-0.374-0.18-0.522-0.18c-0.254,0-0.504,0.428-0.745,1.287h-1.167v-6.978h1.167c0.47,1.702,0.979,2.949,1.529,3.739
			c0.483,0.713,1.092,1.268,1.829,1.67c0.792,0.443,1.617,0.664,2.473,0.664c1.046,0,1.871-0.348,2.476-1.046
			c0.576-0.671,0.864-1.442,0.864-2.314c0-1.259-0.563-2.231-1.69-2.916c-0.604-0.376-1.817-0.866-3.641-1.468
			c-1.207-0.389-2.206-0.892-2.997-1.509c-1.207-0.938-1.81-2.272-1.81-4.002c0-1.595,0.563-2.882,1.69-3.862
			c1.019-0.885,2.306-1.327,3.861-1.327c1.354,0,2.655,0.369,3.901,1.106c0.256,0.148,0.456,0.221,0.604,0.221
			c0.267,0,0.47-0.308,0.603-0.925H187.736z"/>
		<path fill="#E20074" d="M193.225,19.32v-5.773h3.223H199v5.773H193.225z"/>
	</g>
</g>
</svg>
